<mxfile host="Electron" agent="Mozilla/5.0 (X11; Linux x86_64) AppleWebKit/537.36 (KHTML, like Gecko) draw.io/26.0.9 Chrome/128.0.6613.186 Electron/32.3.0 Safari/537.36" version="26.0.9">
  <diagram name="Page-1" id="adpBesQHKRJYUjEOg8ru">
    <mxGraphModel dx="3374" dy="2086" grid="1" gridSize="10" guides="1" tooltips="1" connect="1" arrows="1" fold="1" page="1" pageScale="1" pageWidth="1200" pageHeight="1920" math="0" shadow="0">
      <root>
        <mxCell id="0" />
        <mxCell id="1" parent="0" />
        <mxCell id="-emJckupOi8oOc6qagqn-7" value="" style="rounded=0;whiteSpace=wrap;html=1;fillColor=none;dashed=1;" vertex="1" parent="1">
          <mxGeometry x="240" y="200" width="1880" height="610" as="geometry" />
        </mxCell>
        <mxCell id="8OLrmSVtU4ukcU3g0uOx-1" value="" style="endArrow=classic;html=1;rounded=0;" parent="1" edge="1">
          <mxGeometry width="50" height="50" relative="1" as="geometry">
            <mxPoint x="160" y="240" as="sourcePoint" />
            <mxPoint x="240" y="240" as="targetPoint" />
          </mxGeometry>
        </mxCell>
        <mxCell id="8OLrmSVtU4ukcU3g0uOx-5" value="&lt;font style=&quot;font-size: 16px;&quot;&gt;x&lt;/font&gt;" style="edgeLabel;html=1;align=center;verticalAlign=middle;resizable=0;points=[];" parent="8OLrmSVtU4ukcU3g0uOx-1" vertex="1" connectable="0">
          <mxGeometry x="-0.0056" relative="1" as="geometry">
            <mxPoint as="offset" />
          </mxGeometry>
        </mxCell>
        <mxCell id="8OLrmSVtU4ukcU3g0uOx-6" value="" style="endArrow=classic;html=1;rounded=0;" parent="1" edge="1">
          <mxGeometry width="50" height="50" relative="1" as="geometry">
            <mxPoint x="160" y="600" as="sourcePoint" />
            <mxPoint x="240" y="600" as="targetPoint" />
          </mxGeometry>
        </mxCell>
        <mxCell id="8OLrmSVtU4ukcU3g0uOx-7" value="&lt;span style=&quot;font-size: 16px;&quot;&gt;y&lt;/span&gt;" style="edgeLabel;html=1;align=center;verticalAlign=middle;resizable=0;points=[];" parent="8OLrmSVtU4ukcU3g0uOx-6" vertex="1" connectable="0">
          <mxGeometry x="-0.0056" relative="1" as="geometry">
            <mxPoint as="offset" />
          </mxGeometry>
        </mxCell>
        <mxCell id="8OLrmSVtU4ukcU3g0uOx-8" value="16 bits" style="text;html=1;align=center;verticalAlign=middle;whiteSpace=wrap;rounded=0;" parent="1" vertex="1">
          <mxGeometry x="170" y="260" width="60" height="30" as="geometry" />
        </mxCell>
        <mxCell id="8OLrmSVtU4ukcU3g0uOx-9" value="16 bits" style="text;html=1;align=center;verticalAlign=middle;whiteSpace=wrap;rounded=0;" parent="1" vertex="1">
          <mxGeometry x="170" y="620" width="60" height="30" as="geometry" />
        </mxCell>
        <mxCell id="8OLrmSVtU4ukcU3g0uOx-11" value="" style="endArrow=classic;html=1;rounded=0;" parent="1" edge="1">
          <mxGeometry width="50" height="50" relative="1" as="geometry">
            <mxPoint x="440" y="120" as="sourcePoint" />
            <mxPoint x="440" y="200" as="targetPoint" />
          </mxGeometry>
        </mxCell>
        <mxCell id="8OLrmSVtU4ukcU3g0uOx-12" value="&lt;font style=&quot;font-size: 16px;&quot;&gt;zx&lt;/font&gt;" style="edgeLabel;html=1;align=center;verticalAlign=middle;resizable=0;points=[];" parent="8OLrmSVtU4ukcU3g0uOx-11" vertex="1" connectable="0">
          <mxGeometry x="-0.0056" relative="1" as="geometry">
            <mxPoint y="-10" as="offset" />
          </mxGeometry>
        </mxCell>
        <mxCell id="8OLrmSVtU4ukcU3g0uOx-13" value="" style="endArrow=classic;html=1;rounded=0;" parent="1" edge="1">
          <mxGeometry width="50" height="50" relative="1" as="geometry">
            <mxPoint x="880" y="120" as="sourcePoint" />
            <mxPoint x="880" y="200" as="targetPoint" />
          </mxGeometry>
        </mxCell>
        <mxCell id="8OLrmSVtU4ukcU3g0uOx-14" value="&lt;font style=&quot;font-size: 16px;&quot;&gt;nx&lt;/font&gt;" style="edgeLabel;html=1;align=center;verticalAlign=middle;resizable=0;points=[];" parent="8OLrmSVtU4ukcU3g0uOx-13" vertex="1" connectable="0">
          <mxGeometry x="-0.0056" relative="1" as="geometry">
            <mxPoint y="-10" as="offset" />
          </mxGeometry>
        </mxCell>
        <mxCell id="8OLrmSVtU4ukcU3g0uOx-21" value="" style="group" parent="1" vertex="1" connectable="0">
          <mxGeometry x="360" y="200" width="120" height="100" as="geometry" />
        </mxCell>
        <mxCell id="nLRMlabs2DgrCdVQQMXq-4" style="edgeStyle=orthogonalEdgeStyle;rounded=0;orthogonalLoop=1;jettySize=auto;html=1;" parent="8OLrmSVtU4ukcU3g0uOx-21" source="8OLrmSVtU4ukcU3g0uOx-16" edge="1">
          <mxGeometry relative="1" as="geometry">
            <mxPoint x="439.9999999999998" y="40" as="targetPoint" />
            <Array as="points">
              <mxPoint x="230" y="60" />
              <mxPoint x="230" y="41" />
              <mxPoint x="440" y="41" />
            </Array>
          </mxGeometry>
        </mxCell>
        <mxCell id="8OLrmSVtU4ukcU3g0uOx-16" value="Mux16" style="triangle;whiteSpace=wrap;html=1;" parent="8OLrmSVtU4ukcU3g0uOx-21" vertex="1">
          <mxGeometry x="40" y="20" width="80" height="80" as="geometry" />
        </mxCell>
        <mxCell id="8OLrmSVtU4ukcU3g0uOx-17" value="" style="endArrow=classic;html=1;rounded=0;entryX=0.5;entryY=0;entryDx=0;entryDy=0;" parent="8OLrmSVtU4ukcU3g0uOx-21" target="8OLrmSVtU4ukcU3g0uOx-16" edge="1">
          <mxGeometry width="50" height="50" relative="1" as="geometry">
            <mxPoint x="80" as="sourcePoint" />
            <mxPoint x="130" y="110" as="targetPoint" />
          </mxGeometry>
        </mxCell>
        <mxCell id="8OLrmSVtU4ukcU3g0uOx-18" value="sel" style="edgeLabel;html=1;align=center;verticalAlign=middle;resizable=0;points=[];" parent="8OLrmSVtU4ukcU3g0uOx-17" vertex="1" connectable="0">
          <mxGeometry x="0.026" relative="1" as="geometry">
            <mxPoint as="offset" />
          </mxGeometry>
        </mxCell>
        <mxCell id="8OLrmSVtU4ukcU3g0uOx-19" value="" style="endArrow=classic;html=1;rounded=0;entryX=0;entryY=0.25;entryDx=0;entryDy=0;" parent="8OLrmSVtU4ukcU3g0uOx-21" target="8OLrmSVtU4ukcU3g0uOx-16" edge="1">
          <mxGeometry width="50" height="50" relative="1" as="geometry">
            <mxPoint y="40" as="sourcePoint" />
            <mxPoint x="80" y="80" as="targetPoint" />
          </mxGeometry>
        </mxCell>
        <mxCell id="8OLrmSVtU4ukcU3g0uOx-20" value="" style="endArrow=classic;html=1;rounded=0;entryX=0;entryY=0.25;entryDx=0;entryDy=0;" parent="8OLrmSVtU4ukcU3g0uOx-21" edge="1">
          <mxGeometry width="50" height="50" relative="1" as="geometry">
            <mxPoint y="80" as="sourcePoint" />
            <mxPoint x="40" y="80" as="targetPoint" />
          </mxGeometry>
        </mxCell>
        <mxCell id="8OLrmSVtU4ukcU3g0uOx-23" value="" style="endArrow=classic;html=1;rounded=0;" parent="1" edge="1">
          <mxGeometry width="50" height="50" relative="1" as="geometry">
            <mxPoint x="240" y="240" as="sourcePoint" />
            <mxPoint x="360" y="240" as="targetPoint" />
          </mxGeometry>
        </mxCell>
        <mxCell id="8OLrmSVtU4ukcU3g0uOx-24" value="" style="endArrow=classic;html=1;rounded=0;" parent="1" edge="1">
          <mxGeometry width="50" height="50" relative="1" as="geometry">
            <mxPoint x="280" y="280" as="sourcePoint" />
            <mxPoint x="360" y="280" as="targetPoint" />
          </mxGeometry>
        </mxCell>
        <mxCell id="8OLrmSVtU4ukcU3g0uOx-26" value="false" style="edgeLabel;html=1;align=center;verticalAlign=middle;resizable=0;points=[];" parent="8OLrmSVtU4ukcU3g0uOx-24" vertex="1" connectable="0">
          <mxGeometry x="-0.0132" y="-2" relative="1" as="geometry">
            <mxPoint as="offset" />
          </mxGeometry>
        </mxCell>
        <mxCell id="8OLrmSVtU4ukcU3g0uOx-29" style="edgeStyle=orthogonalEdgeStyle;rounded=0;orthogonalLoop=1;jettySize=auto;html=1;entryX=0;entryY=0.5;entryDx=0;entryDy=0;entryPerimeter=0;" parent="1" source="8OLrmSVtU4ukcU3g0uOx-16" target="8OLrmSVtU4ukcU3g0uOx-31" edge="1">
          <mxGeometry relative="1" as="geometry">
            <mxPoint x="540" y="270" as="targetPoint" />
          </mxGeometry>
        </mxCell>
        <mxCell id="8OLrmSVtU4ukcU3g0uOx-31" value="" style="verticalLabelPosition=bottom;shadow=0;dashed=0;align=center;html=1;verticalAlign=top;shape=mxgraph.electrical.logic_gates.inverter_2" parent="1" vertex="1">
          <mxGeometry x="700" y="250" width="100" height="60" as="geometry" />
        </mxCell>
        <mxCell id="8OLrmSVtU4ukcU3g0uOx-46" value="" style="group" parent="1" vertex="1" connectable="0">
          <mxGeometry x="800" y="200" width="120" height="100" as="geometry" />
        </mxCell>
        <mxCell id="nLRMlabs2DgrCdVQQMXq-21" style="edgeStyle=orthogonalEdgeStyle;rounded=0;orthogonalLoop=1;jettySize=auto;html=1;" parent="8OLrmSVtU4ukcU3g0uOx-46" source="8OLrmSVtU4ukcU3g0uOx-47" edge="1">
          <mxGeometry relative="1" as="geometry">
            <mxPoint x="229.99999999999977" y="300" as="targetPoint" />
            <Array as="points">
              <mxPoint x="150" y="60" />
              <mxPoint x="150" y="300" />
            </Array>
          </mxGeometry>
        </mxCell>
        <mxCell id="8OLrmSVtU4ukcU3g0uOx-47" value="Mux16" style="triangle;whiteSpace=wrap;html=1;" parent="8OLrmSVtU4ukcU3g0uOx-46" vertex="1">
          <mxGeometry x="40" y="20" width="80" height="80" as="geometry" />
        </mxCell>
        <mxCell id="8OLrmSVtU4ukcU3g0uOx-48" value="" style="endArrow=classic;html=1;rounded=0;entryX=0.5;entryY=0;entryDx=0;entryDy=0;" parent="8OLrmSVtU4ukcU3g0uOx-46" target="8OLrmSVtU4ukcU3g0uOx-47" edge="1">
          <mxGeometry width="50" height="50" relative="1" as="geometry">
            <mxPoint x="80" as="sourcePoint" />
            <mxPoint x="130" y="110" as="targetPoint" />
          </mxGeometry>
        </mxCell>
        <mxCell id="8OLrmSVtU4ukcU3g0uOx-49" value="sel" style="edgeLabel;html=1;align=center;verticalAlign=middle;resizable=0;points=[];" parent="8OLrmSVtU4ukcU3g0uOx-48" vertex="1" connectable="0">
          <mxGeometry x="0.026" relative="1" as="geometry">
            <mxPoint as="offset" />
          </mxGeometry>
        </mxCell>
        <mxCell id="8OLrmSVtU4ukcU3g0uOx-50" value="" style="endArrow=classic;html=1;rounded=0;entryX=0;entryY=0.25;entryDx=0;entryDy=0;" parent="8OLrmSVtU4ukcU3g0uOx-46" target="8OLrmSVtU4ukcU3g0uOx-47" edge="1">
          <mxGeometry width="50" height="50" relative="1" as="geometry">
            <mxPoint y="40" as="sourcePoint" />
            <mxPoint x="80" y="80" as="targetPoint" />
          </mxGeometry>
        </mxCell>
        <mxCell id="8OLrmSVtU4ukcU3g0uOx-51" value="" style="endArrow=classic;html=1;rounded=0;entryX=0;entryY=0.25;entryDx=0;entryDy=0;" parent="8OLrmSVtU4ukcU3g0uOx-46" edge="1">
          <mxGeometry width="50" height="50" relative="1" as="geometry">
            <mxPoint y="80" as="sourcePoint" />
            <mxPoint x="40" y="80" as="targetPoint" />
          </mxGeometry>
        </mxCell>
        <mxCell id="8OLrmSVtU4ukcU3g0uOx-63" value="" style="endArrow=classic;html=1;rounded=0;" parent="1" edge="1">
          <mxGeometry width="50" height="50" relative="1" as="geometry">
            <mxPoint x="280" y="639.5" as="sourcePoint" />
            <mxPoint x="360" y="639.5" as="targetPoint" />
          </mxGeometry>
        </mxCell>
        <mxCell id="8OLrmSVtU4ukcU3g0uOx-64" value="false" style="edgeLabel;html=1;align=center;verticalAlign=middle;resizable=0;points=[];" parent="8OLrmSVtU4ukcU3g0uOx-63" vertex="1" connectable="0">
          <mxGeometry x="-0.0132" y="-2" relative="1" as="geometry">
            <mxPoint as="offset" />
          </mxGeometry>
        </mxCell>
        <mxCell id="8OLrmSVtU4ukcU3g0uOx-85" style="edgeStyle=orthogonalEdgeStyle;rounded=0;orthogonalLoop=1;jettySize=auto;html=1;" parent="1" edge="1">
          <mxGeometry relative="1" as="geometry">
            <mxPoint x="800" y="600" as="targetPoint" />
            <mxPoint x="610" y="620" as="sourcePoint" />
            <Array as="points">
              <mxPoint x="660" y="620" />
              <mxPoint x="660" y="600" />
            </Array>
          </mxGeometry>
        </mxCell>
        <mxCell id="8OLrmSVtU4ukcU3g0uOx-70" value="" style="verticalLabelPosition=bottom;shadow=0;dashed=0;align=center;html=1;verticalAlign=top;shape=mxgraph.electrical.logic_gates.inverter_2" parent="1" vertex="1">
          <mxGeometry x="700" y="610" width="100" height="60" as="geometry" />
        </mxCell>
        <mxCell id="8OLrmSVtU4ukcU3g0uOx-80" style="edgeStyle=orthogonalEdgeStyle;rounded=0;orthogonalLoop=1;jettySize=auto;html=1;" parent="1" source="8OLrmSVtU4ukcU3g0uOx-55" edge="1">
          <mxGeometry relative="1" as="geometry">
            <mxPoint x="610" y="620" as="targetPoint" />
          </mxGeometry>
        </mxCell>
        <mxCell id="8OLrmSVtU4ukcU3g0uOx-81" value="" style="endArrow=none;html=1;rounded=0;startArrow=classic;startFill=1;" parent="1" edge="1">
          <mxGeometry width="50" height="50" relative="1" as="geometry">
            <mxPoint x="440" y="810" as="sourcePoint" />
            <mxPoint x="440" y="890" as="targetPoint" />
          </mxGeometry>
        </mxCell>
        <mxCell id="8OLrmSVtU4ukcU3g0uOx-82" value="&lt;font style=&quot;font-size: 16px;&quot;&gt;zy&lt;/font&gt;" style="edgeLabel;html=1;align=center;verticalAlign=middle;resizable=0;points=[];" parent="8OLrmSVtU4ukcU3g0uOx-81" vertex="1" connectable="0">
          <mxGeometry x="-0.0056" relative="1" as="geometry">
            <mxPoint y="-10" as="offset" />
          </mxGeometry>
        </mxCell>
        <mxCell id="8OLrmSVtU4ukcU3g0uOx-83" value="" style="endArrow=none;html=1;rounded=0;startArrow=classic;startFill=1;" parent="1" edge="1">
          <mxGeometry width="50" height="50" relative="1" as="geometry">
            <mxPoint x="880" y="810" as="sourcePoint" />
            <mxPoint x="880" y="890" as="targetPoint" />
          </mxGeometry>
        </mxCell>
        <mxCell id="8OLrmSVtU4ukcU3g0uOx-84" value="&lt;font style=&quot;font-size: 16px;&quot;&gt;ny&lt;/font&gt;" style="edgeLabel;html=1;align=center;verticalAlign=middle;resizable=0;points=[];" parent="8OLrmSVtU4ukcU3g0uOx-83" vertex="1" connectable="0">
          <mxGeometry x="-0.0056" relative="1" as="geometry">
            <mxPoint y="-10" as="offset" />
          </mxGeometry>
        </mxCell>
        <mxCell id="8OLrmSVtU4ukcU3g0uOx-86" style="edgeStyle=orthogonalEdgeStyle;rounded=0;orthogonalLoop=1;jettySize=auto;html=1;entryX=0;entryY=0.5;entryDx=0;entryDy=0;entryPerimeter=0;" parent="1" target="8OLrmSVtU4ukcU3g0uOx-70" edge="1">
          <mxGeometry relative="1" as="geometry">
            <mxPoint x="610" y="620" as="sourcePoint" />
            <Array as="points">
              <mxPoint x="610" y="621" />
              <mxPoint x="660" y="621" />
              <mxPoint x="660" y="640" />
            </Array>
          </mxGeometry>
        </mxCell>
        <mxCell id="nLRMlabs2DgrCdVQQMXq-1" value="" style="group" parent="1" vertex="1" connectable="0">
          <mxGeometry x="360" y="580" width="120" height="100" as="geometry" />
        </mxCell>
        <mxCell id="8OLrmSVtU4ukcU3g0uOx-55" value="Mux16" style="triangle;whiteSpace=wrap;html=1;" parent="nLRMlabs2DgrCdVQQMXq-1" vertex="1">
          <mxGeometry x="40" width="80" height="80" as="geometry" />
        </mxCell>
        <mxCell id="8OLrmSVtU4ukcU3g0uOx-56" value="" style="endArrow=classic;html=1;rounded=0;entryX=0.5;entryY=1;entryDx=0;entryDy=0;" parent="nLRMlabs2DgrCdVQQMXq-1" target="8OLrmSVtU4ukcU3g0uOx-55" edge="1">
          <mxGeometry width="50" height="50" relative="1" as="geometry">
            <mxPoint x="80" y="100" as="sourcePoint" />
            <mxPoint x="130" y="90" as="targetPoint" />
          </mxGeometry>
        </mxCell>
        <mxCell id="8OLrmSVtU4ukcU3g0uOx-57" value="sel" style="edgeLabel;html=1;align=center;verticalAlign=middle;resizable=0;points=[];" parent="8OLrmSVtU4ukcU3g0uOx-56" vertex="1" connectable="0">
          <mxGeometry x="0.026" relative="1" as="geometry">
            <mxPoint as="offset" />
          </mxGeometry>
        </mxCell>
        <mxCell id="8OLrmSVtU4ukcU3g0uOx-58" value="" style="endArrow=classic;html=1;rounded=0;entryX=0;entryY=0.25;entryDx=0;entryDy=0;" parent="nLRMlabs2DgrCdVQQMXq-1" target="8OLrmSVtU4ukcU3g0uOx-55" edge="1">
          <mxGeometry width="50" height="50" relative="1" as="geometry">
            <mxPoint y="20" as="sourcePoint" />
            <mxPoint x="80" y="60" as="targetPoint" />
          </mxGeometry>
        </mxCell>
        <mxCell id="8OLrmSVtU4ukcU3g0uOx-59" value="" style="endArrow=classic;html=1;rounded=0;entryX=0;entryY=0.25;entryDx=0;entryDy=0;" parent="nLRMlabs2DgrCdVQQMXq-1" edge="1">
          <mxGeometry width="50" height="50" relative="1" as="geometry">
            <mxPoint y="60" as="sourcePoint" />
            <mxPoint x="40" y="60" as="targetPoint" />
          </mxGeometry>
        </mxCell>
        <mxCell id="nLRMlabs2DgrCdVQQMXq-2" value="" style="endArrow=classic;html=1;rounded=0;" parent="1" edge="1">
          <mxGeometry width="50" height="50" relative="1" as="geometry">
            <mxPoint x="240" y="600" as="sourcePoint" />
            <mxPoint x="360" y="600" as="targetPoint" />
          </mxGeometry>
        </mxCell>
        <mxCell id="nLRMlabs2DgrCdVQQMXq-3" value="" style="group" parent="1" vertex="1" connectable="0">
          <mxGeometry x="800" y="580" width="120" height="100" as="geometry" />
        </mxCell>
        <mxCell id="nLRMlabs2DgrCdVQQMXq-22" style="edgeStyle=orthogonalEdgeStyle;rounded=0;orthogonalLoop=1;jettySize=auto;html=1;" parent="nLRMlabs2DgrCdVQQMXq-3" source="8OLrmSVtU4ukcU3g0uOx-73" edge="1">
          <mxGeometry relative="1" as="geometry">
            <mxPoint x="230" as="targetPoint" />
            <Array as="points">
              <mxPoint x="210" y="40" />
              <mxPoint x="210" />
            </Array>
          </mxGeometry>
        </mxCell>
        <mxCell id="8OLrmSVtU4ukcU3g0uOx-73" value="Mux16" style="triangle;whiteSpace=wrap;html=1;" parent="nLRMlabs2DgrCdVQQMXq-3" vertex="1">
          <mxGeometry x="40" width="80" height="80" as="geometry" />
        </mxCell>
        <mxCell id="8OLrmSVtU4ukcU3g0uOx-74" value="" style="endArrow=classic;html=1;rounded=0;entryX=0.5;entryY=1;entryDx=0;entryDy=0;" parent="nLRMlabs2DgrCdVQQMXq-3" target="8OLrmSVtU4ukcU3g0uOx-73" edge="1">
          <mxGeometry width="50" height="50" relative="1" as="geometry">
            <mxPoint x="80" y="100" as="sourcePoint" />
            <mxPoint x="130" y="90" as="targetPoint" />
          </mxGeometry>
        </mxCell>
        <mxCell id="8OLrmSVtU4ukcU3g0uOx-75" value="sel" style="edgeLabel;html=1;align=center;verticalAlign=middle;resizable=0;points=[];" parent="8OLrmSVtU4ukcU3g0uOx-74" vertex="1" connectable="0">
          <mxGeometry x="0.026" relative="1" as="geometry">
            <mxPoint as="offset" />
          </mxGeometry>
        </mxCell>
        <mxCell id="8OLrmSVtU4ukcU3g0uOx-76" value="" style="endArrow=classic;html=1;rounded=0;entryX=0;entryY=0.25;entryDx=0;entryDy=0;" parent="nLRMlabs2DgrCdVQQMXq-3" target="8OLrmSVtU4ukcU3g0uOx-73" edge="1">
          <mxGeometry width="50" height="50" relative="1" as="geometry">
            <mxPoint y="20" as="sourcePoint" />
            <mxPoint x="80" y="60" as="targetPoint" />
          </mxGeometry>
        </mxCell>
        <mxCell id="8OLrmSVtU4ukcU3g0uOx-77" value="" style="endArrow=classic;html=1;rounded=0;entryX=0;entryY=0.25;entryDx=0;entryDy=0;" parent="nLRMlabs2DgrCdVQQMXq-3" edge="1">
          <mxGeometry width="50" height="50" relative="1" as="geometry">
            <mxPoint y="60" as="sourcePoint" />
            <mxPoint x="40" y="60" as="targetPoint" />
          </mxGeometry>
        </mxCell>
        <mxCell id="nLRMlabs2DgrCdVQQMXq-23" style="edgeStyle=orthogonalEdgeStyle;rounded=0;orthogonalLoop=1;jettySize=auto;html=1;" parent="1" source="nLRMlabs2DgrCdVQQMXq-5" edge="1">
          <mxGeometry relative="1" as="geometry">
            <mxPoint x="1250" y="380.0000000000002" as="targetPoint" />
          </mxGeometry>
        </mxCell>
        <mxCell id="nLRMlabs2DgrCdVQQMXq-5" value="And16" style="shape=or;whiteSpace=wrap;html=1;" parent="1" vertex="1">
          <mxGeometry x="1045" y="340" width="60" height="80" as="geometry" />
        </mxCell>
        <mxCell id="nLRMlabs2DgrCdVQQMXq-18" style="edgeStyle=orthogonalEdgeStyle;rounded=0;orthogonalLoop=1;jettySize=auto;html=1;entryX=0;entryY=0.25;entryDx=0;entryDy=0;entryPerimeter=0;" parent="1" source="8OLrmSVtU4ukcU3g0uOx-47" target="nLRMlabs2DgrCdVQQMXq-5" edge="1">
          <mxGeometry relative="1" as="geometry" />
        </mxCell>
        <mxCell id="nLRMlabs2DgrCdVQQMXq-19" style="edgeStyle=orthogonalEdgeStyle;rounded=0;orthogonalLoop=1;jettySize=auto;html=1;entryX=0;entryY=0.75;entryDx=0;entryDy=0;entryPerimeter=0;" parent="1" source="8OLrmSVtU4ukcU3g0uOx-73" target="nLRMlabs2DgrCdVQQMXq-5" edge="1">
          <mxGeometry relative="1" as="geometry" />
        </mxCell>
        <mxCell id="nLRMlabs2DgrCdVQQMXq-20" value="" style="group" parent="1" vertex="1" connectable="0">
          <mxGeometry x="1030" y="460" width="170" height="160" as="geometry" />
        </mxCell>
        <mxCell id="nLRMlabs2DgrCdVQQMXq-7" value="Add16" style="shape=trapezoid;perimeter=trapezoidPerimeter;whiteSpace=wrap;html=1;fixedSize=1;direction=south;rounded=1;" parent="nLRMlabs2DgrCdVQQMXq-20" vertex="1">
          <mxGeometry x="40" width="90" height="160" as="geometry" />
        </mxCell>
        <mxCell id="nLRMlabs2DgrCdVQQMXq-8" value="" style="endArrow=classic;html=1;rounded=0;" parent="nLRMlabs2DgrCdVQQMXq-20" edge="1">
          <mxGeometry width="50" height="50" relative="1" as="geometry">
            <mxPoint y="40" as="sourcePoint" />
            <mxPoint x="40" y="40" as="targetPoint" />
          </mxGeometry>
        </mxCell>
        <mxCell id="nLRMlabs2DgrCdVQQMXq-9" value="a" style="edgeLabel;html=1;align=center;verticalAlign=middle;resizable=0;points=[];" parent="nLRMlabs2DgrCdVQQMXq-8" vertex="1" connectable="0">
          <mxGeometry x="-0.1391" relative="1" as="geometry">
            <mxPoint as="offset" />
          </mxGeometry>
        </mxCell>
        <mxCell id="nLRMlabs2DgrCdVQQMXq-10" value="" style="endArrow=classic;html=1;rounded=0;" parent="nLRMlabs2DgrCdVQQMXq-20" edge="1">
          <mxGeometry width="50" height="50" relative="1" as="geometry">
            <mxPoint y="120" as="sourcePoint" />
            <mxPoint x="40" y="120" as="targetPoint" />
          </mxGeometry>
        </mxCell>
        <mxCell id="nLRMlabs2DgrCdVQQMXq-11" value="b" style="edgeLabel;html=1;align=center;verticalAlign=middle;resizable=0;points=[];" parent="nLRMlabs2DgrCdVQQMXq-10" vertex="1" connectable="0">
          <mxGeometry x="-0.1391" relative="1" as="geometry">
            <mxPoint as="offset" />
          </mxGeometry>
        </mxCell>
        <mxCell id="nLRMlabs2DgrCdVQQMXq-12" value="" style="endArrow=classic;html=1;rounded=0;" parent="nLRMlabs2DgrCdVQQMXq-20" edge="1">
          <mxGeometry width="50" height="50" relative="1" as="geometry">
            <mxPoint x="130" y="79.5" as="sourcePoint" />
            <mxPoint x="170" y="79.5" as="targetPoint" />
          </mxGeometry>
        </mxCell>
        <mxCell id="nLRMlabs2DgrCdVQQMXq-13" value="out" style="edgeLabel;html=1;align=center;verticalAlign=middle;resizable=0;points=[];" parent="nLRMlabs2DgrCdVQQMXq-12" vertex="1" connectable="0">
          <mxGeometry x="-0.1391" relative="1" as="geometry">
            <mxPoint as="offset" />
          </mxGeometry>
        </mxCell>
        <mxCell id="nLRMlabs2DgrCdVQQMXq-24" value="" style="group" parent="1" vertex="1" connectable="0">
          <mxGeometry x="1250" y="360" width="120" height="100" as="geometry" />
        </mxCell>
        <mxCell id="nLRMlabs2DgrCdVQQMXq-43" style="edgeStyle=orthogonalEdgeStyle;rounded=0;orthogonalLoop=1;jettySize=auto;html=1;" parent="nLRMlabs2DgrCdVQQMXq-24" source="nLRMlabs2DgrCdVQQMXq-25" edge="1">
          <mxGeometry relative="1" as="geometry">
            <mxPoint x="350" y="20" as="targetPoint" />
            <Array as="points">
              <mxPoint x="160" y="40" />
              <mxPoint x="160" y="20" />
            </Array>
          </mxGeometry>
        </mxCell>
        <mxCell id="nLRMlabs2DgrCdVQQMXq-25" value="Mux16" style="triangle;whiteSpace=wrap;html=1;" parent="nLRMlabs2DgrCdVQQMXq-24" vertex="1">
          <mxGeometry x="40" width="80" height="80" as="geometry" />
        </mxCell>
        <mxCell id="nLRMlabs2DgrCdVQQMXq-26" value="" style="endArrow=classic;html=1;rounded=0;entryX=0.5;entryY=0;entryDx=0;entryDy=0;" parent="nLRMlabs2DgrCdVQQMXq-24" target="nLRMlabs2DgrCdVQQMXq-25" edge="1">
          <mxGeometry width="50" height="50" relative="1" as="geometry">
            <mxPoint x="80" y="-20" as="sourcePoint" />
            <mxPoint x="130" y="90" as="targetPoint" />
          </mxGeometry>
        </mxCell>
        <mxCell id="nLRMlabs2DgrCdVQQMXq-27" value="sel" style="edgeLabel;html=1;align=center;verticalAlign=middle;resizable=0;points=[];" parent="nLRMlabs2DgrCdVQQMXq-26" vertex="1" connectable="0">
          <mxGeometry x="0.026" relative="1" as="geometry">
            <mxPoint as="offset" />
          </mxGeometry>
        </mxCell>
        <mxCell id="nLRMlabs2DgrCdVQQMXq-28" value="" style="endArrow=classic;html=1;rounded=0;entryX=0;entryY=0.25;entryDx=0;entryDy=0;" parent="nLRMlabs2DgrCdVQQMXq-24" target="nLRMlabs2DgrCdVQQMXq-25" edge="1">
          <mxGeometry width="50" height="50" relative="1" as="geometry">
            <mxPoint y="20" as="sourcePoint" />
            <mxPoint x="80" y="60" as="targetPoint" />
          </mxGeometry>
        </mxCell>
        <mxCell id="nLRMlabs2DgrCdVQQMXq-29" value="" style="endArrow=classic;html=1;rounded=0;entryX=0;entryY=0.25;entryDx=0;entryDy=0;" parent="nLRMlabs2DgrCdVQQMXq-24" edge="1">
          <mxGeometry width="50" height="50" relative="1" as="geometry">
            <mxPoint y="60" as="sourcePoint" />
            <mxPoint x="40" y="60" as="targetPoint" />
          </mxGeometry>
        </mxCell>
        <mxCell id="nLRMlabs2DgrCdVQQMXq-30" value="" style="endArrow=classic;html=1;rounded=0;" parent="1" edge="1">
          <mxGeometry width="50" height="50" relative="1" as="geometry">
            <mxPoint x="1330" y="200" as="sourcePoint" />
            <mxPoint x="1330" y="340" as="targetPoint" />
          </mxGeometry>
        </mxCell>
        <mxCell id="nLRMlabs2DgrCdVQQMXq-31" value="" style="endArrow=classic;html=1;rounded=0;" parent="1" edge="1">
          <mxGeometry width="50" height="50" relative="1" as="geometry">
            <mxPoint x="1330" y="120" as="sourcePoint" />
            <mxPoint x="1330" y="200" as="targetPoint" />
          </mxGeometry>
        </mxCell>
        <mxCell id="nLRMlabs2DgrCdVQQMXq-32" value="&lt;font style=&quot;font-size: 16px;&quot;&gt;f&lt;/font&gt;" style="edgeLabel;html=1;align=center;verticalAlign=middle;resizable=0;points=[];" parent="nLRMlabs2DgrCdVQQMXq-31" vertex="1" connectable="0">
          <mxGeometry x="-0.0056" relative="1" as="geometry">
            <mxPoint y="-10" as="offset" />
          </mxGeometry>
        </mxCell>
        <mxCell id="nLRMlabs2DgrCdVQQMXq-33" value="" style="endArrow=classic;html=1;rounded=0;edgeStyle=orthogonalEdgeStyle;" parent="1" edge="1">
          <mxGeometry width="50" height="50" relative="1" as="geometry">
            <mxPoint x="1200" y="540" as="sourcePoint" />
            <mxPoint x="1250" y="420" as="targetPoint" />
            <Array as="points">
              <mxPoint x="1200" y="420" />
            </Array>
          </mxGeometry>
        </mxCell>
        <mxCell id="nLRMlabs2DgrCdVQQMXq-34" value="" style="endArrow=classic;html=1;rounded=0;" parent="1" edge="1">
          <mxGeometry width="50" height="50" relative="1" as="geometry">
            <mxPoint x="1680" y="120" as="sourcePoint" />
            <mxPoint x="1680" y="200" as="targetPoint" />
          </mxGeometry>
        </mxCell>
        <mxCell id="nLRMlabs2DgrCdVQQMXq-35" value="&lt;font style=&quot;font-size: 16px;&quot;&gt;no&lt;/font&gt;" style="edgeLabel;html=1;align=center;verticalAlign=middle;resizable=0;points=[];" parent="nLRMlabs2DgrCdVQQMXq-34" vertex="1" connectable="0">
          <mxGeometry x="-0.0056" relative="1" as="geometry">
            <mxPoint y="-10" as="offset" />
          </mxGeometry>
        </mxCell>
        <mxCell id="nLRMlabs2DgrCdVQQMXq-36" value="" style="group" parent="1" vertex="1" connectable="0">
          <mxGeometry x="1600" y="360" width="120" height="100" as="geometry" />
        </mxCell>
        <mxCell id="nLRMlabs2DgrCdVQQMXq-37" value="Mux16" style="triangle;whiteSpace=wrap;html=1;" parent="nLRMlabs2DgrCdVQQMXq-36" vertex="1">
          <mxGeometry x="40" width="80" height="80" as="geometry" />
        </mxCell>
        <mxCell id="nLRMlabs2DgrCdVQQMXq-38" value="" style="endArrow=classic;html=1;rounded=0;entryX=0.5;entryY=0;entryDx=0;entryDy=0;" parent="nLRMlabs2DgrCdVQQMXq-36" target="nLRMlabs2DgrCdVQQMXq-37" edge="1">
          <mxGeometry width="50" height="50" relative="1" as="geometry">
            <mxPoint x="80" y="-20" as="sourcePoint" />
            <mxPoint x="130" y="90" as="targetPoint" />
          </mxGeometry>
        </mxCell>
        <mxCell id="nLRMlabs2DgrCdVQQMXq-39" value="sel" style="edgeLabel;html=1;align=center;verticalAlign=middle;resizable=0;points=[];" parent="nLRMlabs2DgrCdVQQMXq-38" vertex="1" connectable="0">
          <mxGeometry x="0.026" relative="1" as="geometry">
            <mxPoint as="offset" />
          </mxGeometry>
        </mxCell>
        <mxCell id="nLRMlabs2DgrCdVQQMXq-40" value="" style="endArrow=classic;html=1;rounded=0;entryX=0;entryY=0.25;entryDx=0;entryDy=0;" parent="nLRMlabs2DgrCdVQQMXq-36" target="nLRMlabs2DgrCdVQQMXq-37" edge="1">
          <mxGeometry width="50" height="50" relative="1" as="geometry">
            <mxPoint y="20" as="sourcePoint" />
            <mxPoint x="80" y="60" as="targetPoint" />
          </mxGeometry>
        </mxCell>
        <mxCell id="nLRMlabs2DgrCdVQQMXq-41" value="" style="endArrow=classic;html=1;rounded=0;entryX=0;entryY=0.25;entryDx=0;entryDy=0;" parent="nLRMlabs2DgrCdVQQMXq-36" edge="1">
          <mxGeometry width="50" height="50" relative="1" as="geometry">
            <mxPoint y="60" as="sourcePoint" />
            <mxPoint x="40" y="60" as="targetPoint" />
          </mxGeometry>
        </mxCell>
        <mxCell id="nLRMlabs2DgrCdVQQMXq-45" style="edgeStyle=orthogonalEdgeStyle;rounded=0;orthogonalLoop=1;jettySize=auto;html=1;" parent="1" source="nLRMlabs2DgrCdVQQMXq-42" edge="1">
          <mxGeometry relative="1" as="geometry">
            <mxPoint x="1600" y="420" as="targetPoint" />
          </mxGeometry>
        </mxCell>
        <mxCell id="nLRMlabs2DgrCdVQQMXq-42" value="" style="verticalLabelPosition=bottom;shadow=0;dashed=0;align=center;html=1;verticalAlign=top;shape=mxgraph.electrical.logic_gates.inverter_2" parent="1" vertex="1">
          <mxGeometry x="1440" y="390" width="100" height="60" as="geometry" />
        </mxCell>
        <mxCell id="nLRMlabs2DgrCdVQQMXq-44" style="edgeStyle=orthogonalEdgeStyle;rounded=0;orthogonalLoop=1;jettySize=auto;html=1;entryX=0;entryY=0.5;entryDx=0;entryDy=0;entryPerimeter=0;" parent="1" source="nLRMlabs2DgrCdVQQMXq-25" target="nLRMlabs2DgrCdVQQMXq-42" edge="1">
          <mxGeometry relative="1" as="geometry">
            <Array as="points">
              <mxPoint x="1410" y="400" />
              <mxPoint x="1410" y="420" />
            </Array>
          </mxGeometry>
        </mxCell>
        <mxCell id="nLRMlabs2DgrCdVQQMXq-46" value="" style="endArrow=classic;html=1;rounded=0;" parent="1" edge="1">
          <mxGeometry width="50" height="50" relative="1" as="geometry">
            <mxPoint x="1680" y="200" as="sourcePoint" />
            <mxPoint x="1680" y="340" as="targetPoint" />
          </mxGeometry>
        </mxCell>
        <mxCell id="nLRMlabs2DgrCdVQQMXq-47" value="" style="endArrow=classic;html=1;rounded=0;" parent="1" edge="1">
          <mxGeometry width="50" height="50" relative="1" as="geometry">
            <mxPoint x="2120" y="399.32" as="sourcePoint" />
            <mxPoint x="2200" y="399.32" as="targetPoint" />
          </mxGeometry>
        </mxCell>
        <mxCell id="nLRMlabs2DgrCdVQQMXq-48" value="&lt;font style=&quot;font-size: 16px;&quot;&gt;out&lt;/font&gt;" style="edgeLabel;html=1;align=center;verticalAlign=middle;resizable=0;points=[];" parent="nLRMlabs2DgrCdVQQMXq-47" vertex="1" connectable="0">
          <mxGeometry x="-0.0056" relative="1" as="geometry">
            <mxPoint as="offset" />
          </mxGeometry>
        </mxCell>
        <mxCell id="nLRMlabs2DgrCdVQQMXq-50" value="" style="endArrow=classic;html=1;rounded=0;" parent="1" edge="1">
          <mxGeometry width="50" height="50" relative="1" as="geometry">
            <mxPoint x="2120" y="698.82" as="sourcePoint" />
            <mxPoint x="2200" y="698.82" as="targetPoint" />
          </mxGeometry>
        </mxCell>
        <mxCell id="nLRMlabs2DgrCdVQQMXq-51" value="&lt;font style=&quot;font-size: 16px;&quot;&gt;zr&lt;/font&gt;" style="edgeLabel;html=1;align=center;verticalAlign=middle;resizable=0;points=[];" parent="nLRMlabs2DgrCdVQQMXq-50" vertex="1" connectable="0">
          <mxGeometry x="-0.0056" relative="1" as="geometry">
            <mxPoint as="offset" />
          </mxGeometry>
        </mxCell>
        <mxCell id="nLRMlabs2DgrCdVQQMXq-52" value="" style="endArrow=classic;html=1;rounded=0;" parent="1" edge="1">
          <mxGeometry width="50" height="50" relative="1" as="geometry">
            <mxPoint x="2120" y="558.7300000000001" as="sourcePoint" />
            <mxPoint x="2200" y="558.7300000000001" as="targetPoint" />
          </mxGeometry>
        </mxCell>
        <mxCell id="nLRMlabs2DgrCdVQQMXq-53" value="&lt;font style=&quot;font-size: 16px;&quot;&gt;ng&lt;/font&gt;" style="edgeLabel;html=1;align=center;verticalAlign=middle;resizable=0;points=[];" parent="nLRMlabs2DgrCdVQQMXq-52" vertex="1" connectable="0">
          <mxGeometry x="-0.0056" relative="1" as="geometry">
            <mxPoint as="offset" />
          </mxGeometry>
        </mxCell>
        <mxCell id="nLRMlabs2DgrCdVQQMXq-57" style="edgeStyle=orthogonalEdgeStyle;rounded=0;orthogonalLoop=1;jettySize=auto;html=1;exitX=1;exitY=0.5;exitDx=0;exitDy=0;exitPerimeter=0;" parent="1" edge="1">
          <mxGeometry relative="1" as="geometry">
            <mxPoint x="2120" y="400" as="targetPoint" />
            <mxPoint x="1950" y="400.59" as="sourcePoint" />
          </mxGeometry>
        </mxCell>
        <mxCell id="nLRMlabs2DgrCdVQQMXq-49" style="edgeStyle=orthogonalEdgeStyle;rounded=0;orthogonalLoop=1;jettySize=auto;html=1;" parent="1" source="nLRMlabs2DgrCdVQQMXq-37" edge="1">
          <mxGeometry relative="1" as="geometry">
            <mxPoint x="1950" y="400" as="targetPoint" />
          </mxGeometry>
        </mxCell>
        <mxCell id="-emJckupOi8oOc6qagqn-4" value="out" style="edgeLabel;html=1;align=center;verticalAlign=middle;resizable=0;points=[];" vertex="1" connectable="0" parent="nLRMlabs2DgrCdVQQMXq-49">
          <mxGeometry x="0.4996" y="1" relative="1" as="geometry">
            <mxPoint as="offset" />
          </mxGeometry>
        </mxCell>
        <mxCell id="lK333nlsxR4h-l_1gGkw-4" style="edgeStyle=orthogonalEdgeStyle;rounded=0;orthogonalLoop=1;jettySize=auto;html=1;entryX=0;entryY=0.5;entryDx=0;entryDy=0;entryPerimeter=0;" parent="1" target="lK333nlsxR4h-l_1gGkw-20" edge="1">
          <mxGeometry relative="1" as="geometry">
            <mxPoint x="1980" y="860" as="targetPoint" />
            <mxPoint x="1950" y="560" as="sourcePoint" />
          </mxGeometry>
        </mxCell>
        <mxCell id="lK333nlsxR4h-l_1gGkw-6" value="out[15]" style="edgeLabel;html=1;align=center;verticalAlign=middle;resizable=0;points=[];" parent="lK333nlsxR4h-l_1gGkw-4" vertex="1" connectable="0">
          <mxGeometry x="-0.0022" y="1" relative="1" as="geometry">
            <mxPoint as="offset" />
          </mxGeometry>
        </mxCell>
        <mxCell id="nLRMlabs2DgrCdVQQMXq-60" style="edgeStyle=orthogonalEdgeStyle;rounded=0;orthogonalLoop=1;jettySize=auto;html=1;exitX=1;exitY=0.5;exitDx=0;exitDy=0;exitPerimeter=0;" parent="1" edge="1">
          <mxGeometry relative="1" as="geometry">
            <mxPoint x="2120" y="560" as="targetPoint" />
            <mxPoint x="1950" y="559.8199999999999" as="sourcePoint" />
            <Array as="points">
              <mxPoint x="2035" y="560" />
              <mxPoint x="2035" y="560" />
            </Array>
          </mxGeometry>
        </mxCell>
        <mxCell id="nLRMlabs2DgrCdVQQMXq-64" style="edgeStyle=orthogonalEdgeStyle;rounded=0;orthogonalLoop=1;jettySize=auto;html=1;exitX=1;exitY=0.5;exitDx=0;exitDy=0;" parent="1" source="nLRMlabs2DgrCdVQQMXq-37" edge="1">
          <mxGeometry relative="1" as="geometry">
            <mxPoint x="1950" y="560" as="targetPoint" />
            <Array as="points">
              <mxPoint x="1870" y="400" />
              <mxPoint x="1870" y="560" />
            </Array>
          </mxGeometry>
        </mxCell>
        <mxCell id="-emJckupOi8oOc6qagqn-3" value="out[15]" style="edgeLabel;html=1;align=center;verticalAlign=middle;resizable=0;points=[];" vertex="1" connectable="0" parent="nLRMlabs2DgrCdVQQMXq-64">
          <mxGeometry x="0.1695" relative="1" as="geometry">
            <mxPoint as="offset" />
          </mxGeometry>
        </mxCell>
        <mxCell id="-emJckupOi8oOc6qagqn-2" style="edgeStyle=orthogonalEdgeStyle;rounded=0;orthogonalLoop=1;jettySize=auto;html=1;" edge="1" parent="1" source="lK333nlsxR4h-l_1gGkw-5">
          <mxGeometry relative="1" as="geometry">
            <mxPoint x="2120" y="699.9999999999998" as="targetPoint" />
          </mxGeometry>
        </mxCell>
        <mxCell id="lK333nlsxR4h-l_1gGkw-5" value="And" style="shape=or;whiteSpace=wrap;html=1;" parent="1" vertex="1">
          <mxGeometry x="2030" y="660" width="60" height="80" as="geometry" />
        </mxCell>
        <mxCell id="lK333nlsxR4h-l_1gGkw-8" value="Inc16" style="shape=trapezoid;perimeter=trapezoidPerimeter;whiteSpace=wrap;html=1;fixedSize=1;direction=south;rounded=1;" parent="1" vertex="1">
          <mxGeometry x="1820" y="640" width="90" height="160" as="geometry" />
        </mxCell>
        <mxCell id="lK333nlsxR4h-l_1gGkw-15" style="edgeStyle=orthogonalEdgeStyle;rounded=0;orthogonalLoop=1;jettySize=auto;html=1;" parent="1" source="lK333nlsxR4h-l_1gGkw-8" edge="1">
          <mxGeometry relative="1" as="geometry">
            <mxPoint x="1970" y="720" as="targetPoint" />
          </mxGeometry>
        </mxCell>
        <mxCell id="lK333nlsxR4h-l_1gGkw-16" value="out[15]" style="edgeLabel;html=1;align=center;verticalAlign=middle;resizable=0;points=[];" parent="lK333nlsxR4h-l_1gGkw-15" vertex="1" connectable="0">
          <mxGeometry x="-0.0601" y="1" relative="1" as="geometry">
            <mxPoint as="offset" />
          </mxGeometry>
        </mxCell>
        <mxCell id="lK333nlsxR4h-l_1gGkw-17" style="edgeStyle=orthogonalEdgeStyle;rounded=0;orthogonalLoop=1;jettySize=auto;html=1;entryX=0;entryY=0.5;entryDx=0;entryDy=0;entryPerimeter=0;" parent="1" source="nLRMlabs2DgrCdVQQMXq-37" target="lK333nlsxR4h-l_1gGkw-19" edge="1">
          <mxGeometry relative="1" as="geometry" />
        </mxCell>
        <mxCell id="-emJckupOi8oOc6qagqn-5" value="out" style="edgeLabel;html=1;align=center;verticalAlign=middle;resizable=0;points=[];" vertex="1" connectable="0" parent="lK333nlsxR4h-l_1gGkw-17">
          <mxGeometry x="-0.0036" relative="1" as="geometry">
            <mxPoint as="offset" />
          </mxGeometry>
        </mxCell>
        <mxCell id="lK333nlsxR4h-l_1gGkw-19" value="" style="verticalLabelPosition=bottom;shadow=0;dashed=0;align=center;html=1;verticalAlign=top;shape=mxgraph.electrical.logic_gates.inverter_2" parent="1" vertex="1">
          <mxGeometry x="1760" y="700" width="60" height="40" as="geometry" />
        </mxCell>
        <mxCell id="lK333nlsxR4h-l_1gGkw-20" value="" style="verticalLabelPosition=bottom;shadow=0;dashed=0;align=center;html=1;verticalAlign=top;shape=mxgraph.electrical.logic_gates.inverter_2;rotation=90;" parent="1" vertex="1">
          <mxGeometry x="1950" y="630" width="60" height="40" as="geometry" />
        </mxCell>
        <mxCell id="lK333nlsxR4h-l_1gGkw-22" value="" style="endArrow=classic;html=1;rounded=0;exitX=1;exitY=0.5;exitDx=0;exitDy=0;exitPerimeter=0;entryX=0;entryY=0.25;entryDx=0;entryDy=0;entryPerimeter=0;" parent="1" source="lK333nlsxR4h-l_1gGkw-20" target="lK333nlsxR4h-l_1gGkw-5" edge="1">
          <mxGeometry width="50" height="50" relative="1" as="geometry">
            <mxPoint x="1950" y="690" as="sourcePoint" />
            <mxPoint x="2000" y="640" as="targetPoint" />
          </mxGeometry>
        </mxCell>
        <mxCell id="-emJckupOi8oOc6qagqn-1" value="" style="verticalLabelPosition=bottom;shadow=0;dashed=0;align=center;html=1;verticalAlign=top;shape=mxgraph.electrical.logic_gates.inverter_2" vertex="1" parent="1">
          <mxGeometry x="1970" y="700" width="60" height="40" as="geometry" />
        </mxCell>
        <mxCell id="-emJckupOi8oOc6qagqn-11" value="" style="endArrow=classic;html=1;rounded=0;" edge="1" parent="1">
          <mxGeometry width="50" height="50" relative="1" as="geometry">
            <mxPoint x="440" y="810" as="sourcePoint" />
            <mxPoint x="440" y="680" as="targetPoint" />
          </mxGeometry>
        </mxCell>
        <mxCell id="-emJckupOi8oOc6qagqn-12" value="" style="endArrow=classic;html=1;rounded=0;" edge="1" parent="1">
          <mxGeometry width="50" height="50" relative="1" as="geometry">
            <mxPoint x="880" y="810" as="sourcePoint" />
            <mxPoint x="880" y="680" as="targetPoint" />
          </mxGeometry>
        </mxCell>
        <mxCell id="-emJckupOi8oOc6qagqn-13" value="ALU 16 bits&amp;nbsp;" style="text;html=1;align=center;verticalAlign=middle;whiteSpace=wrap;rounded=0;fontSize=30;" vertex="1" parent="1">
          <mxGeometry x="1060" y="70" width="110" height="40" as="geometry" />
        </mxCell>
      </root>
    </mxGraphModel>
  </diagram>
</mxfile>
